<svg width="24" height="24" viewBox="0 0 24 24" fill="none" xmlns="http://www.w3.org/2000/svg">
  <path d="M20.1932 12.999C21.8501 15.8688 20.8668 19.5383 17.9971 21.1952C15.1273 22.852 11.4578 21.8688 9.80096 18.999M20.1932 12.999C18.5364 10.1293 14.8669 9.14602 11.9971 10.8029C9.12735 12.4597 8.14411 16.1293 9.80096 18.999M20.1932 12.999L9.80096 18.999" stroke="currentColor"/>
  <path d="M10.0428 5.54202L15.1277 2.53739C17 1.43112 19.394 2.08763 20.4749 4.00375C21.3433 5.54314 21.1 7.42719 20 8.68218M10.0428 5.54202L4.95786 8.54665C3.08564 9.65292 2.44417 12.1031 3.5251 14.0192C4.175 15.1712 5.29957 15.868 6.50001 16M10.0428 5.54202L11.5 7.99998" stroke="currentColor" stroke-linecap="round" stroke-linejoin="round"/>
</svg>
