<svg width="30" height="30" viewBox="0 0 30 30" fill="none" xmlns="http://www.w3.org/2000/svg">
  <path d="M26.144 8.57811C27.1119 9.14942 27.7058 10.1897 27.7058 11.3136V25.8235C27.7058 27.5778 26.2837 29 24.5294 29H21.3529C19.5986 29 18.1764 27.5778 18.1764 25.8235V19.4705C18.1764 17.7162 16.7543 16.294 14.9999 16.294C13.2456 16.294 11.8235 17.7162 11.8235 19.4705V25.8235C11.8235 27.5778 10.4013 29 8.64701 29H5.47054C3.71622 29 2.29407 27.5778 2.29407 25.8235V11.3136C2.29407 10.1897 2.88798 9.14942 3.85585 8.57811L13.3853 2.95311C14.3814 2.3651 15.6185 2.3651 16.6146 2.95311L26.144 8.57811Z" fill="currentColor"/>
</svg>
