<svg width="20" height="20" viewBox="0 0 20 20" fill="none" xmlns="http://www.w3.org/2000/svg">
  <path d="M3.75029 10.4163L10.4169 3.74967C11.1905 2.97613 12.2396 2.54155 13.3336 2.54155C14.4276 2.54155 15.4767 2.97613 16.2503 3.74967C17.0238 4.52322 17.4584 5.57237 17.4584 6.66634C17.4584 7.76031 17.0238 8.80946 16.2503 9.58301L9.58362 16.2497C8.81008 17.0232 7.76092 17.4578 6.66695 17.4578C5.57298 17.4578 4.52383 17.0232 3.75029 16.2497C2.97674 15.4761 2.54216 14.427 2.54216 13.333C2.54216 12.239 2.97674 11.1899 3.75029 10.4163Z" stroke="currentColor" stroke-width="1.5" stroke-linecap="round" stroke-linejoin="round"/>
  <path d="M7.08362 7.08301L12.9169 12.9163" stroke="currentColor" stroke-width="1.5" stroke-linecap="round" stroke-linejoin="round"/>
</svg>
