<svg width="36" height="36" viewBox="0 0 36 36" fill="none" xmlns="http://www.w3.org/2000/svg">
<path d="M2.72095 31.1113V4.86137L6.41537 22.3613L20.4153 31.6946L2.72095 31.1113Z" fill="#EB892E" fill-opacity="0.82"/>
<foreignObject x="-3.56964" y="-3.56964" width="31.8336" height="41.5558"><div xmlns="http://www.w3.org/1999/xhtml" style="backdrop-filter:blur(1.78px);clip-path:url(#bgblur_0_2057_374_clip_path);height:100%;width:100%"></div></foreignObject><path data-figma-bg-blur-radius="3.56964" d="M0 1.45596C0 0.651857 0.651857 0 1.45596 0H17.2322C17.5923 0 17.9396 0.133427 18.2071 0.374512L24.2132 5.7885C24.5195 6.06458 24.6943 6.4576 24.6943 6.86995V32.9605C24.6943 33.7647 24.0425 34.4165 23.2384 34.4165H1.45596C0.651857 34.4165 0 33.7647 0 32.9605V1.45596Z" fill="#F2A65A"/>
<rect x="4.08246" y="23.1395" width="16.3333" height="2.13888" rx="1.06944" fill="white"/>
<rect x="4.08246" y="26.6394" width="16.3333" height="2.13888" rx="1.06944" fill="white"/>
<foreignObject x="17.3203" y="6.2857" width="19.8956" height="19.9713"><div xmlns="http://www.w3.org/1999/xhtml" style="backdrop-filter:blur(2.26px);clip-path:url(#bgblur_1_2057_374_clip_path);height:100%;width:100%"></div></foreignObject><rect data-figma-bg-blur-radius="4.52556" x="27.4991" y="10.0487" width="8.10484" height="9.45565" rx="1.84586" transform="rotate(42.7275 27.4991 10.0487)" fill="#2E2E2E"/>
<path fill-rule="evenodd" clip-rule="evenodd" d="M23.8292 14.0186C24.3353 13.4706 25.1903 13.4363 25.7383 13.9424L29.7071 17.6084C30.2551 18.1146 30.2895 18.9696 29.7833 19.5176L22.0421 27.8984C21.7099 28.258 21.2863 28.5207 20.8165 28.6582L18.5108 29.333L14.9385 26.0332L15.4278 23.6816C15.5276 23.2023 15.7567 22.7591 16.0889 22.3994L23.8292 14.0186Z" fill="#2E2E2E"/>
<foreignObject x="19.0757" y="10.1035" width="14.5463" height="14.319"><div xmlns="http://www.w3.org/1999/xhtml" style="backdrop-filter:blur(2.55px);clip-path:url(#bgblur_2_2057_374_clip_path);height:100%;width:100%"></div></foreignObject><rect data-figma-bg-blur-radius="5.10931" width="5.40323" height="1.35081" rx="0.675403" transform="matrix(-0.734589 -0.678512 -0.678513 0.734589 28.7917 18.6)" fill="white"/>
<foreignObject x="9.67055" y="21.5075" width="13.372" height="13.3896"><div xmlns="http://www.w3.org/1999/xhtml" style="backdrop-filter:blur(2.26px);clip-path:url(#bgblur_3_2057_374_clip_path);height:100%;width:100%"></div></foreignObject><path data-figma-bg-blur-radius="4.52556" d="M18.517 29.3326L14.9448 26.033L14.2108 29.5576C14.1068 30.0568 14.5723 30.4867 15.0616 30.3435L18.517 29.3326Z" fill="#2E2E2E"/>
<defs>
<clipPath id="bgblur_0_2057_374_clip_path" transform="translate(3.56964 3.56964)"><path d="M0 1.45596C0 0.651857 0.651857 0 1.45596 0H17.2322C17.5923 0 17.9396 0.133427 18.2071 0.374512L24.2132 5.7885C24.5195 6.06458 24.6943 6.4576 24.6943 6.86995V32.9605C24.6943 33.7647 24.0425 34.4165 23.2384 34.4165H1.45596C0.651857 34.4165 0 33.7647 0 32.9605V1.45596Z"/>
</clipPath><clipPath id="bgblur_1_2057_374_clip_path" transform="translate(-17.3203 -6.2857)"><rect x="27.4991" y="10.0487" width="8.10484" height="9.45565" rx="1.84586" transform="rotate(42.7275 27.4991 10.0487)"/>
</clipPath><clipPath id="bgblur_2_2057_374_clip_path" transform="translate(-19.0757 -10.1035)"><rect width="5.40323" height="1.35081" rx="0.675403" transform="matrix(-0.734589 -0.678512 -0.678513 0.734589 28.7917 18.6)"/>
</clipPath><clipPath id="bgblur_3_2057_374_clip_path" transform="translate(-9.67055 -21.5075)"><path d="M18.517 29.3326L14.9448 26.033L14.2108 29.5576C14.1068 30.0568 14.5723 30.4867 15.0616 30.3435L18.517 29.3326Z"/>
</clipPath></defs>
</svg>
