<svg width="55" height="55" viewBox="0 0 55 55" fill="none" xmlns="http://www.w3.org/2000/svg">
<path d="M44.5255 23.25C43.8421 23.25 43.2755 22.6833 43.2755 22V18.6667C43.2755 14.3667 40.4921 11.5833 36.1921 11.5833H19.5255C15.2255 11.5833 12.4421 14.3667 12.4421 18.6667V22C12.4421 22.6833 11.8755 23.25 11.1921 23.25C10.5088 23.25 9.94214 22.6833 9.94214 22V18.6667C9.94214 12.9333 13.7921 9.08334 19.5255 9.08334H36.1921C41.9255 9.08334 45.7755 12.9333 45.7755 18.6667V22C45.7755 22.6833 45.2088 23.25 44.5255 23.25Z" fill="#2E2E2E"/>
<path d="M24.6023 24.2112L20.9731 27.8405C18.8468 29.9667 18.8651 32.6154 20.7714 34.5308C22.6869 36.4371 25.3355 36.4555 27.4618 34.3292L31.0911 30.6999L24.6023 24.2112ZM35.8934 19.4088C33.978 17.5025 31.3202 17.4934 29.2123 19.6104L25.5738 23.2397L32.0626 29.7285L35.6918 26.09C37.8181 23.9729 37.7997 21.3243 35.8934 19.4088Z" fill="#F2A65A"/>
<path d="M36.1921 44.9167H19.5255C13.7921 44.9167 9.94214 41.0667 9.94214 35.3333V32C9.94214 31.3167 10.5088 30.75 11.1921 30.75C11.8755 30.75 12.4421 31.3167 12.4421 32V35.3333C12.4421 39.6333 15.2255 42.4167 19.5255 42.4167H36.1921C40.4921 42.4167 43.2755 39.6333 43.2755 35.3333V32C43.2755 31.3167 43.8421 30.75 44.5255 30.75C45.2088 30.75 45.7755 31.3167 45.7755 32V35.3333C45.7755 41.0667 41.9255 44.9167 36.1921 44.9167Z" fill="#2E2E2E"/>
</svg>
