<svg width="20" height="20" viewBox="0 0 20 20" fill="none" xmlns="http://www.w3.org/2000/svg">
<g clip-path="url(#clip0_2164_84)">
<path d="M3.33337 5.83334C3.33337 5.39131 3.50897 4.96739 3.82153 4.65483C4.13409 4.34227 4.55801 4.16667 5.00004 4.16667H15C15.4421 4.16667 15.866 4.34227 16.1786 4.65483C16.4911 4.96739 16.6667 5.39131 16.6667 5.83334V15.8333C16.6667 16.2754 16.4911 16.6993 16.1786 17.0118C15.866 17.3244 15.4421 17.5 15 17.5H5.00004C4.55801 17.5 4.13409 17.3244 3.82153 17.0118C3.50897 16.6993 3.33337 16.2754 3.33337 15.8333V5.83334Z" stroke="#2E2E2E" stroke-linecap="round" stroke-linejoin="round"/>
<path d="M13.3334 2.5V5.83333" stroke="#2E2E2E" stroke-linecap="round" stroke-linejoin="round"/>
<path d="M6.66663 2.5V5.83333" stroke="#2E2E2E" stroke-width="1.25" stroke-linecap="round" stroke-linejoin="round"/>
<path d="M3.33337 9.16667H16.6667" stroke="#2E2E2E" stroke-linecap="round" stroke-linejoin="round"/>
</g>
<defs>
<clipPath id="clip0_2164_84">
<rect width="20" height="20" fill="white"/>
</clipPath>
</defs>
</svg>
