<svg width="30" height="20" viewBox="0 0 30 20" fill="none" xmlns="http://www.w3.org/2000/svg">
  <path d="M1.5 0C1.86725 4.84457e-05 2.22159 0.13496 2.49609 0.378906C2.77057 0.622977 2.94621 0.95946 2.98926 1.32422L3 1.5V10.5H12V3C12 2.63275 12.135 2.27841 12.3789 2.00391C12.623 1.72943 12.9595 1.55379 13.3242 1.51074L13.5 1.5H25.5C26.6476 1.49994 27.7518 1.9384 28.5869 2.72559C29.422 3.51302 29.9248 4.59049 29.9922 5.73633L30 6V18C29.9996 18.3823 29.8533 18.7503 29.5908 19.0283C29.3284 19.3063 28.9695 19.4737 28.5879 19.4961C28.2062 19.5185 27.8303 19.3938 27.5371 19.1484C27.2441 18.9031 27.056 18.5552 27.0107 18.1758L27 18V13.5H3V18C2.99958 18.3823 2.85327 18.7503 2.59082 19.0283C2.32837 19.3063 1.96951 19.4737 1.58789 19.4961C1.20624 19.5185 0.83028 19.3938 0.537109 19.1484C0.244103 18.9031 0.0559534 18.5552 0.0107422 18.1758L0 18V1.5C3.15705e-08 1.10218 0.158149 0.720758 0.439453 0.439453C0.720758 0.158149 1.10218 0 1.5 0ZM7.5 3C8.08354 3.00018 8.6544 3.17056 9.14258 3.49023C9.63085 3.81009 10.0157 4.26574 10.249 4.80078C10.4824 5.33583 10.5549 5.92747 10.457 6.50293C10.3592 7.07839 10.0953 7.61313 9.69824 8.04102C9.30129 8.46875 8.78805 8.77156 8.22168 8.91211C7.65522 9.05262 7.0597 9.02467 6.50879 8.83203C5.95785 8.63933 5.47457 8.29012 5.11914 7.82715C4.76371 7.36413 4.55159 6.80668 4.50781 6.22461L4.5 6L4.50781 5.77539C4.56457 5.02081 4.90422 4.31539 5.45898 3.80078C6.01396 3.28615 6.74314 2.99976 7.5 3Z" fill="currentColor"/>
</svg>
