<svg width="40" height="40" viewBox="0 0 40 40" fill="none" xmlns="http://www.w3.org/2000/svg">
  <rect width="40" height="40" rx="12" fill="#FFF5E8"/>
  <path d="M11 13.5C11 12.6716 11.6716 12 12.5 12C13.3284 12 14 12.6716 14 13.5V22H25V16.5C25 15.6716 25.6716 15 26.5 15H29C30.6569 15 32 16.3431 32 18V27.5C32 28.3284 31.3284 29 30.5 29C29.6716 29 29 28.3284 29 27.5V25H14V27.5C14 28.3284 13.3284 29 12.5 29C11.6716 29 11 28.3284 11 27.5V13.5Z" fill="#F2A65A"/>
  <circle cx="17.5" cy="17.5" r="2.5" fill="#F2A65A"/>
</svg>
